<svg id="Layer_1" data-name="Layer 1" xmlns="http://www.w3.org/2000/svg" viewBox="0 0 228 202"><defs><style>.cls-1{fill:#f26f21;}.cls-2{fill:#231f20;}</style></defs><title>lazarski_logo_sygnet_top</title><g id="laz1"><path shape-rendering="auto" d="M64.77,51.5A70,70,0,0,1,183.71,92l.84-.13A70.85,70.85,0,0,0,44,91.93l.84.13A69.87,69.87,0,0,1,64.77,51.5Z"/><path shape-rendering="auto" d="M8.94,121.86V90.06l6.59,3v25.46L23.71,122v6.37Z"/><path shape-rendering="auto" d="M47,135.06l-1.93-6.45-11.53-2.83L31.69,131l-5.77-1.78L37.14,99l5.13.8,12,36.63Zm-7.63-25.67-4,11.12,8.08,2Z"/><path shape-rendering="auto" d="M57.48,137.34v-5.9l15.69-21.5-15-1.27v-6.53l24,2v5.79l-16.07,22.4,16.07,1.75v6.53Z"/><path shape-rendering="auto" d="M111.17,142.08l-2.28-6.88-13.33-.39-2.26,6.5-7.49-.45,13.49-36.48,5.74.17,13.7,37.5Zm-8.81-26.66-4.74,13.35,9.32.27Z"/><path shape-rendering="auto" d="M143.52,140.79l-7.34-14.34-5.27.27v14.8l-7.32.37V104.54l14.7-.47c7.64-.39,12.17,4.6,12.17,10.87a10.38,10.38,0,0,1-6.85,9.92l7.8,14.93Zm-5.7-30.16-6.9.07v9.91l6.9-.35c3.21-.16,5.32-2,5.32-4.95S141,110.47,137.81,110.63Z"/><path shape-rendering="auto" d="M167.44,138.35c-5.44.32-9.58-.61-13.14-4l4.49-4.88c2.29,2.17,5.37,2.76,8.69,2.56,4.13-.24,6.33-2,6.31-4.88a3.92,3.92,0,0,0-1.13-3,5.06,5.06,0,0,0-3.18-1.09l-4.34-.36c-3.08-.28-5.35-1.12-7-2.61s-2.61-3.95-2.63-7c-.06-6.51,4.64-11.34,12.39-11.8,4.94-.29,8.52.73,11.62,3.57l-4.39,4.72c-2.29-2.07-5-2.21-7.38-2.08-3.73.22-5.52,2.43-5.5,4.94a3.37,3.37,0,0,0,1.08,2.55,5.79,5.79,0,0,0,3.34,1.24l4.24.37c3.28.27,5.35,1.07,6.88,2.41,1.93,1.73,2.81,4.34,2.84,7.57C180.7,133.57,174.94,137.91,167.44,138.35Z"/><path shape-rendering="auto" d="M203.32,128.71l-9.45-11-3.3,4.75v10.37l-6.6,1.69,0-34.4,6.6-1.2v14.51L200.29,97l8-2.17L198.24,111.5,210.4,126Z"/><path shape-rendering="auto" d="M213.09,125V93.09l6.55-3.22v31.62Z"/><path shape-rendering="auto" d="M43.86,95.55C24.68,92.68,11,88.83,5.38,84a6.52,6.52,0,0,1-2.6-4.78c0-2.48,1.86-4.53,4.71-6.33s7.85-3.7,13-5.22l-1,1.23a43,43,0,0,0-11.17,5c-2.64,1.65-3.58,3.92-3.55,5.21A6.37,6.37,0,0,0,6.8,83.17a23.3,23.3,0,0,0,6.15,3.54C18.4,89,26.43,91.15,36.37,92.94c19.88,3.57,47.43,5.79,77.86,5.79,26.62,0,51-1.7,70.05-4.51s32.67-6.84,37.37-11a6.35,6.35,0,0,0,2.06-4.05,7.1,7.1,0,0,0-3.66-5.49,44.72,44.72,0,0,0-11.39-4.75l-1-1.22c5.3,1.53,10.23,3.31,13.19,5.15s4.81,3.89,4.84,6.41a6.52,6.52,0,0,1-2.6,4.78,25.33,25.33,0,0,1-6.72,3.9c-5.71,2.42-13.85,4.57-23.89,6.37-20.07,3.6-47.71,5.82-78.25,5.82-26.72,0-51.22-1.7-70.37-4.53Z"/><path shape-rendering="auto" d="M114.47,147.37a318.31,318.31,0,0,0,69.81-7.54c14.72-3.39,26.12-7.5,33.76-11.67a18.53,18.53,0,0,0,3.65-2.54,31.41,31.41,0,0,0,2.57-2.76c-6.33,5-21.34,11.47-40.46,15.84a316.24,316.24,0,0,1-69.33,7.49h-.42a316.23,316.23,0,0,1-69.33-7.49C25.62,134.33,10.6,127.9,4.27,122.86a31.37,31.37,0,0,0,2.57,2.76,18.47,18.47,0,0,0,3.65,2.54c7.64,4.17,19,8.28,33.76,11.67a318.31,318.31,0,0,0,69.81,7.54Z"/><path shape-rendering="auto" d="M114.47,149.74a319.54,319.54,0,0,0,68.86-7.42,154.6,154.6,0,0,0,25.15-7.78l.05,0a43.71,43.71,0,0,0,9.45-5.16,151.66,151.66,0,0,1-34.83,12.14,318.84,318.84,0,0,1-68.68,7.4h-.42a318.83,318.83,0,0,1-68.68-7.4,151.67,151.67,0,0,1-34.83-12.14A43.72,43.72,0,0,0,20,134.52l.05,0a154.55,154.55,0,0,0,25.15,7.78,319.53,319.53,0,0,0,68.86,7.42Z"/><path shape-rendering="auto" d="M214.2,84.94c-1.83.6-3,1-4.81,1.54h-.06a161.54,161.54,0,0,1-26.42,5.68c-18.63,2.7-42.57,4.33-68.67,4.33-29.84,0-56.85-2.13-76.32-5.55a138.54,138.54,0,0,1-18.83-4.46h0c-1.79-.53-3-.94-4.81-1.54-.89-.29-2-.66-4-1.45l-.35-.16a28.9,28.9,0,0,0,4.75,2.43c5.4,2.25,13.3,4.29,23.07,6,19.55,3.43,46.59,5.56,76.47,5.56,26.14,0,50.12-1.63,68.79-4.34,17.09-2.46,29.75-5.9,35.46-9.65l-.32.14C216.21,84.28,215.09,84.65,214.2,84.94Z"/><path shape-rendering="auto" d="M114.24,7.86A93.24,93.24,0,0,0,22.13,87.42l1.64.46a91.46,91.46,0,0,1,181,0l1.64-.45A93.27,93.27,0,0,0,114.24,7.86Z"/><path shape-rendering="auto" d="M47.34,34.08A94.7,94.7,0,0,1,207.91,86.94l.82-.25a95.54,95.54,0,0,0-188.92,0l.82.26A94.53,94.53,0,0,1,47.34,34.08Z"/><path shape-rendering="auto" class="cls-1" d="M120.67,32.88l1.48.16Z"/><path shape-rendering="auto" class="cls-1" d="M117.53,32.66l.63,0Z"/><path shape-rendering="auto" class="cls-1" d="M102.84,33.54l1.57-.25Z"/><path shape-rendering="auto" class="cls-1" d="M122.15,33l1.28.16Z"/><path shape-rendering="auto" class="cls-1" d="M118.17,32.69c.84,0,1.67.11,2.5.19Q119.43,32.76,118.17,32.69Z"/><path shape-rendering="auto" class="cls-1" d="M117.74,33.51l.46,0h0Z"/><path shape-rendering="auto" class="cls-1" d="M102.14,33.67l.7-.12Z"/><path shape-rendering="auto" class="cls-1" d="M86.58,79.41l.11,0-.07,0Z"/><path shape-rendering="auto" class="cls-1" d="M139.41,54.46l-.42-.32a.8.8,0,0,1,0,.29Z"/><path shape-rendering="auto" class="cls-1" d="M181.57,88.69c0-.16-.05-.32-.09-.49A68,68,0,0,0,171,62.8l-.3-.43A68.43,68.43,0,0,0,126,33.62c-.85-.15-1.7-.3-2.57-.42L122.15,33l-1.48-.16c-.83-.08-1.66-.14-2.5-.19l-.63,0c-1.07-.05-2.16-.08-3.25-.08s-2.25,0-3.36.09l-.33,0q-1.56.08-3.1.24L107,33c-.86.09-1.72.2-2.58.33l-1.57.25-.7.12A68.12,68.12,0,0,0,73.07,46.38l-.62.49-.23.18-.36.28a68.87,68.87,0,0,0-14.05,15c-.27.39-.52.78-.78,1.17A68,68,0,0,0,47,88.29l-.07.39q-.32,1.79-.56,3.6l.84.12q.25-2,.61-3.92c.16-.56.34-1.11.52-1.65a18.17,18.17,0,0,0,1.43,5.92l.4,0,.57.07,0,.07,0-.06.85.11,2.46.3c.05-.2.1-.4.16-.6.71-.71.8-1.82,1.73-2.31V89.23c.89-.67,2.65-.34,3.84-.21.44.31.84.57,1.22.8-.6,1.34-1.16,2.68-1.68,4l.87.09c.48-1.24,1-2.47,1.54-3.69a10,10,0,0,1,2.89,2.43,1.7,1.7,0,0,1,.63,1.74l1.1.1v-.69c.84-1.25,2.43-1.29,3.46-2.31h.23q.94.52,1.92,1c-.29.79-.57,1.58-.84,2.36l.87.07c.24-.69.48-1.37.73-2.05q2.73,1.34,5.78,2.49l3,.18a69,69,0,0,1-8.51-3.47q1.05-2.77,2.27-5.52a12.37,12.37,0,0,1,3.77-.28c.8-.36.53-1.07.58-1.73,1.15-.27,2.21-.84,3.41-1.16.18.22.4.4.58.62.4-.31.75-.62.58-1.2.57-.13.89.18,1.15.62.71-.71.8-1.82,1.73-2.35,0-.6.24-1.28-.46-1.69l-.11,0A33.1,33.1,0,0,0,78,81.16l.2-.39c1.82-.69,3.65-1.36,5.54-1.94l.37-.35q1.22.48,2.51.93h0l.07,0q1.51.52,3.1,1c-1.8,4.88-3.46,10-4.89,15.35l.87,0c1.43-5.24,3.07-10.35,4.85-15.17a81.71,81.71,0,0,0,10.7,2.17c-.79,4.3-1.52,8.83-2.17,13.47l.85,0c.65-4.61,1.37-9.1,2.16-13.37a97,97,0,0,0,11.7.76V96.49h.84V83.71A97.1,97.1,0,0,0,126.34,83c.79,4.27,1.52,8.76,2.17,13.37l.85,0c-.65-4.64-1.39-9.16-2.18-13.47a83,83,0,0,0,9.29-1.8c.49.39.08,1.41.9,1.61v1.73c-.93.22-.27,1.51-1.15,1.73-1.46,0-2.67-.12-3.91.77.75,1.24.24,3.68.51,5.06a5.35,5.35,0,0,0,1.86,1.18c.8,0,1.91.5,2.66.5,1.7-.87,2.48-1.13,3.37-2.42-1-.58-.31-2-.45-2.78a1.36,1.36,0,0,0,.28-.21q.83,2.6,1.59,5.27c-.05.06-.09.13-.15.18-1.55-.22-3,1.57-4.58,1.44a7.88,7.88,0,0,0-.57-.62c-.75.8-.34.55-1.13,1.35a1.62,1.62,0,0,1,0,.28c2.38-.08,4.74-.18,7.05-.29l.87,0,3.3-.17,3-.18q3.24-.2,6.38-.43l.87-.07c3.77-.29,7.43-.61,11-1l.87-.09c2.17-.22,4.29-.46,6.36-.71v0c-2.7-2.35-5.89-4-8.64-6.4.8-.13,1.73.4,2.31-.58A1,1,0,0,1,168.5,85c1.42-.18,1.5,1.91,2.92,1.74a42.84,42.84,0,0,0,4.83,4.52c.19.57.37,1.15.55,1.72l.68-.09.17,0,.31,0,1-.12,2.3-.31h.06l.84-.12Q181.9,90.46,181.57,88.69ZM53.2,81.09c-.93.23-.26,1.51-1.15,1.73a32.16,32.16,0,0,1-1.77,8.67s0,.09,0,.14a16.59,16.59,0,0,1-1.1-5.87c0-.47,0-.88,0-1.28l.2-.54a.77.77,0,0,0,1.19-.68c.66-.66,1.68-2.53,1.33-3.07.57-3.51,1.95-4.8,3-6.62C55,76.25,53.46,78.52,53.2,81.09Zm23.65.43-2.31.78c-.8-.13-1.73.4-2.3-.58V80a13.46,13.46,0,0,1,1.15-1.16,1,1,0,0,0-.58-1.16c-.71.67-1.81.8-2.3,1.73-1.29.13-.22-.89-.58-1.16a10.36,10.36,0,0,1,2.88-2.31,6.61,6.61,0,0,1,.58.58c.4-.31.71-.62.58-1.16-.66-.71-1.81-.8-2.3-1.78.49-1,1.17-.63,2-.77l.63.47c.51,2,.82,3.48,1.38,5.54-.57-.18-.88.18-1.15.58A1,1,0,0,1,74,80.56c.22.89,1.5.27,1.73,1.15l1.31-.5Zm79.61-13.89c.26-.4.58-.76,1.15-.58l1,1c-.32.4-.66.79-1,1.18C157,68.61,156.36,67.91,156.45,67.63Zm1,2.95a1,1,0,0,0,1.55-.06,9.76,9.76,0,0,1-.81-.69c.36-.38.69-.77,1-1.16l.11.11a6.23,6.23,0,0,1,3.45.58c-.18.58.17.89.57,1.16a4.4,4.4,0,0,1-1.15,2.31h-1.15c-1,.53-1.06,1.64-1.78,2.31v.38q-1.39-2-2.88-4Q157,71.08,157.47,70.58Zm-8.85,7.2q.95,1.7,1.84,3.42c-.62-.27-.81-1.07-2.24-1.16.13-.58-.83-1.53-1.22-1.8A7.35,7.35,0,0,1,148.62,77.78Zm-4.29-14.24c-.8.36-.53,1.11-.58,1.73,1,.58.44,1.55.58,2.31l-.8.51q-2.14-3-4.51-5.92a28.27,28.27,0,0,0,3.7-2.25c-.17.47,0,1.15-.69,1.3A14.37,14.37,0,0,1,144.33,63.55Zm-12,.4-.7.21a66.62,66.62,0,0,0-7.89-12.27,21.35,21.35,0,0,0,2.81-1.09q2.26,1.89,4.39,3.93c.08,1.11.89,2.13.63,3.29.88.27.22,1.51,1.15,1.73a7.39,7.39,0,0,1-.58,3.51C132.22,63.51,132.29,63.73,132.35,63.95ZM118.81,53a29.91,29.91,0,0,0,4.08-.8,63.43,63.43,0,0,1,7.95,12.26,56.73,56.73,0,0,1-7.41,1.52A67,67,0,0,0,118.81,53ZM122.58,66a65.85,65.85,0,0,1-7.88.52V53.24c1.1,0,2.17-.07,3.21-.18A63,63,0,0,1,122.58,66Zm9.59-13.8c-.82.2-.4,1.22-.9,1.61q-1.89-1.79-3.89-3.47a13.18,13.18,0,0,0,2.09-1.4c1.69.91,3.36,1.93,5,3A11.33,11.33,0,0,1,132.17,52.24Zm-3-3.46h0Zm1-.4a7.79,7.79,0,0,0,1.27-1.59q4,1.51,7.62,3.35c.42.67.23,1.42,1.08,2,.18.57-.18.89-.58,1.15.4.31.75.62.58,1.2h-.7l-.45,0a.8.8,0,0,0,0-.29,1.23,1.23,0,0,0-.61-.87c-.18,0-.37,0-.55,0l-.77-.54a1.18,1.18,0,0,0,.74-.61c.18-.53-.17-.84-.57-1.16a8.88,8.88,0,0,1-1.65.73C133.78,50.48,132,49.38,130.14,48.38Zm10.77.68c-.62.1-1.32-.18-1.89.13q-3.49-1.72-7.24-3.16a5.58,5.58,0,0,0,.39-1.55,53.3,53.3,0,0,1,6.51,1.78l.5.49a7,7,0,0,0-.58.58C139.1,48.26,140.21,48.39,140.92,49.06Zm-4.84,7.1c1,.53,1.37,1.73,2.3,2.36a5.94,5.94,0,0,0,1.23,2.38c-.37.21-.75.41-1.15.61q-.67-.8-1.36-1.59C137,58.57,135.72,57.65,136.08,56.16Zm3.68-11.72-.57-.58c-.29.51-1,.7-1.15,1.3a52.58,52.58,0,0,0-5.84-1.54,5.41,5.41,0,0,0-.27-1.27,61.73,61.73,0,0,1,9,1.69C140.92,45,140.06,44.1,139.76,44.44Zm-6.9-3.51.83-.83c.67,0,1.34.09,2,.16a1.28,1.28,0,0,0,.61.14h-1.15c-.44.45-.91.89-1.36,1.34-.77-.11-1.53-.2-2.28-.28a7,7,0,0,0-.83-1.2A3.09,3.09,0,0,1,132.86,40.93ZM90.27,38.35a48.88,48.88,0,0,1,15-4.32c1.5-.2,3-.35,4.54-.45.93.16,1.89.23,2.83.37a1.47,1.47,0,0,1,.5-.5l.7,0c.58.89,1.48.43,2.26.52a.89.89,0,0,1,.44-.47c.4,0,.8,0,1.19,0l.46,0h0c5.52.32,7.4,2.45,9.22,4.21a19.35,19.35,0,0,0-3.16-1.36,32.38,32.38,0,0,0-10-1.51c-6.55,0-12.29,1.73-15.43,4.42q-1.18-.09-2.37-.09c-.63,0-1.26,0-1.89.06a1.8,1.8,0,0,0-.39-.34,1,1,0,0,1-.32.39l-1.45.13c.14-.54-.15-.85-.54-1.15a4.16,4.16,0,0,1-2.21.36ZM95,49.86a1.78,1.78,0,0,0,.07.37q-1.62,1-3.23,2.13l-.29.2q-1.29.91-2.57,1.89V53.36c-.53-.76-1.56-1.1-2-1.88A85.29,85.29,0,0,1,97,46.83a2,2,0,0,0,.09.5l-1.72.16c-.64.73-1.73,1-2.17,2C93.69,50.2,94.37,49.87,95,49.86Zm2-8.4c-1.87.19-3.81.49-5.78.89l1.17-1.1a4.6,4.6,0,0,0,2.31-1.13c.58,0,1.16,0,1.74,0s1,0,1.53.06A7.16,7.16,0,0,0,97,41.45ZM89,44.7c.37-.45.76-.87,1.17-1.27a60.46,60.46,0,0,1,6.5-1.08,5.26,5.26,0,0,0-.27,1.27,54.91,54.91,0,0,0-7.33,2A1,1,0,0,1,89,44.7ZM89.55,47a1.17,1.17,0,0,0-.11-.6,53.91,53.91,0,0,1,6.94-1.93A5.64,5.64,0,0,0,96.77,46a86.28,86.28,0,0,0-10.08,4.63c0-.06,0-.11,0-.17A16.71,16.71,0,0,0,89.55,47Zm-3.5,11.55a1,1,0,0,1,1.15.58A14,14,0,0,0,88.35,58h1.77c-.17.58.13.89.58,1.16a1,1,0,0,1,1.15-.58c.4-.26.71-.58.58-1.11-.4-.85-1.11-.58-1.73-.62-.18-.53,1.9-2.53,2.3-2.8.54-.46.26-1-.2-1.33q1.4-1,2.81-1.83a1.39,1.39,0,0,0,.68,0c-.36.44-.72.83-1.08,1.27a7.33,7.33,0,0,1,.89,2.66Q92.86,58,90,61.47a26.74,26.74,0,0,1-4.17-2.61Zm9.2,0-1.14.11c-.25.65-1.3.88-1,1.84.43.36.83.72,1.26,1,.23.56-.09.9-.46,1.21a1.1,1.1,0,0,1,.63.7,39.17,39.17,0,0,1-3.81-1.58q2.3-2.73,4.8-5.28A3,3,0,0,0,95.25,58.54ZM82.6,70.16a5.24,5.24,0,0,1-1.15,2.31H79.72V71.32c.4-.4.75-.8,1.15-1.15-.35-.76.88-1,.58-1.73a13.91,13.91,0,0,1-1.11-1.2c.31-.89-.66-1.46-.58-2.31.69-.43.6-1.05.56-1.67q1.55-1.59,3.16-3.07a4,4,0,0,1,1.41-.45l.27-.26a27,27,0,0,0,4.22,2.68q-1,1.17-1.89,2.37a7,7,0,0,0-1.81,1.34C84.55,67.1,84,69,82.6,70.16Zm7.49,9.47q-2.81-.82-5.37-1.81l.14-.15h4.65c-.18.58.18.89.58,1.16a1.65,1.65,0,0,0,.29.06Zm0-16.4-.81.41.89-1.1a40.3,40.3,0,0,0,4.48,1.84,2.77,2.77,0,0,0,.07.64,5.84,5.84,0,0,0,1.38.7c-.87,1.74-1.73,3.58-2.57,5.48-.07-.77.36-1.65-.57-2.2-.26.4-.58.76-1.15.58a17.15,17.15,0,0,1-.58-5.2A14.18,14.18,0,0,0,90.08,63.23ZM101.46,82a80.55,80.55,0,0,1-10.55-2.14l.4-1a5.35,5.35,0,0,1,2.23-.53c.4-.4.75-.8,1.15-1.15V75.41c-.7-.4-.93-1.13-1.29-1.77,1.12-2.64,2.27-5.14,3.43-7.49a1.89,1.89,0,0,1,.35.37,8.8,8.8,0,0,1,.6-1.19,58.24,58.24,0,0,0,7,1.42C103.64,71.26,102.5,76.43,101.46,82Zm-1.35-21a32.48,32.48,0,0,1,2.7-2c.59.08.87-.26,1.14-.69-.23-.56,0-.9.47-1.2l1.14-.11c-.64-.61-.06-2-.28-2.92.76-.43.43-1.11.41-1.78a.64.64,0,0,1,.06-.14,30.11,30.11,0,0,0,3.85.76,68.24,68.24,0,0,0-4.56,13,57.19,57.19,0,0,1-6.75-1.34c.6-.84,1.28-1.63,2-2.42Zm13.74,21.85a95,95,0,0,1-11.55-.74c1-5.59,2.17-10.76,3.35-15.25a69.18,69.18,0,0,0,8.2.54Zm0-16.3a66.89,66.89,0,0,1-8-.53,64,64,0,0,1,4.61-13c1.09.12,2.22.18,3.38.2Zm.42-14.15a32.09,32.09,0,0,1-7.73-.91c.51-.24,1.07-.44,1.14-.94-.77-.64-1.72-.37-2.3-1.25-.34-1.22.65-2.56,1-3.71.19-1.72-1.88-.09-2.49-.07-1.43-1.42-.8-1.84-1.22-2.07a3.33,3.33,0,0,1-5.29.51.77.77,0,0,0-.16.34c0-.11,0-.22,0-.33,0-2.14,1.77-4.21,4.88-5.75a28.21,28.21,0,0,1,12.23-2.5,28.24,28.24,0,0,1,12.23,2.5,14.38,14.38,0,0,1,1.77,1,10.91,10.91,0,0,1,1,.77A5.35,5.35,0,0,1,131.39,44c0,2.24-1.78,4.35-4.88,5.92A27.92,27.92,0,0,1,114.28,52.41Zm.42,30.45V67.41a68.74,68.74,0,0,0,8.1-.54c1.19,4.49,2.33,9.67,3.38,15.26A94.9,94.9,0,0,1,114.7,82.86Zm19.22-2.52a1.23,1.23,0,0,0,.35.37c-2.32.53-4.74,1-7.24,1.31-1-5.58-2.19-10.75-3.38-15.26a57.88,57.88,0,0,0,7.59-1.58c1.9,3.72,3.76,7.89,5.52,12.36A6.24,6.24,0,0,1,133.92,80.34Zm6.2-11.29c-.71.4-.54.49-1-.23s0-1.29-.13-1.6-1.45-.52-1.45-.52-1.28.45-1.15,1a6.59,6.59,0,0,0,1.15,1.73,5.7,5.7,0,0,0,1.59,1.34c-1.28.8-.18,1.6-1.19,2.58v1.16a13.83,13.83,0,0,1-1.06,1.07c-1.55-3.82-3.17-7.4-4.82-10.65l.58-.18a6.91,6.91,0,0,0,2.22,2.78c1-.58.84-1.73,1-2.53.75-.35.64.22,1.39-.14L139,66.6a1,1,0,0,0,.58-1.15c-.4-.27-.75-.58-.58-1.16a1.81,1.81,0,0,0,.4-.35q1.81,2.28,3.49,4.65a8.07,8.07,0,0,0-1.39,1.31C141,69.9,140.52,69.05,140.12,69.05Zm14.52,22.31c-.75.89-2.08.84-2.87,1.73-1.06-.8-1-1.08-1.18-2-.36-.4-.5-2.21-.9-2.57-.84-.09-1.91.89-2.79.53-1.37.71-2,2-3.5,2.58a4.41,4.41,0,0,0-.66.93q-.92-3.17-1.93-6.25a1.34,1.34,0,0,1,0-.2c.09-.84-.49-1.25-.09-2.19,1.15.09.94-1.34,2.27-.81.93-.49.75-1.51,1.41-2.18.58-.18,1.79,1.13,1.92,1.67s2.35,1.17,3.59,1.28c3,.27,1.92,1.87,2.68,2h.07c-.24,0-3.12-.11-3.63.36.37,1.28,1.92.88,2.28,1.28s1.31-.17,1.71-.85q1.11,2.51,2.09,5A2.94,2.94,0,0,1,154.64,91.37Zm5.23.58a7.47,7.47,0,0,0-2.27,0q1.08-.58,2.1-1.18A1.26,1.26,0,0,1,159.87,91.94Zm1.88-3.47h-1.31c-.4.4-.8.76-1.15,1.16a1.08,1.08,0,0,0,0,.4q-1.54.92-3.24,1.78-1.32-3.46-2.89-6.88c0-.12,0-.25-.06-.39-.09-.8.81-.07,1-.64s-.37-.36-.64-.9a2.42,2.42,0,0,0-1.61-.75q-.9-1.83-1.88-3.64a2.86,2.86,0,0,0,2,1.18c1.37.71.78.73,1.8,1.8,0,.44.89,1.16.94,1.69s.53.4,1,.85a4.13,4.13,0,0,1,1.13,2c.13.62.11-.58,1.48-.62s0-.31.93-.75.67,0,1.07.31.22-.49.88-1,.84-.64.27-1-.17-.64-.93-.24,0,.76-1.51.53-.13-.8-.61-1.33.19-1-1.89-1c-.8-.4-.68-.55-.73-1.22.4-.36.75-.76,1.15-1.16,1.65-.64,2-1.53,1.68-2.28-.35-.36-1.27-.5-1.67-.9.13-1.16-1.07-1.75-1.74-2.59a1.79,1.79,0,0,1,0-.35l.47-.37q1.83,2.39,3.52,4.91v.43a3.63,3.63,0,0,0-1.24,2.47c1,1,2,.64,3,1.62a7.65,7.65,0,0,0,.6-.85q1.64,2.72,3.09,5.55C163.79,87,162.81,87.75,161.75,88.47Zm3.61-2.8q-1.55-3-3.33-5.91a3.48,3.48,0,0,0,.13-.53,3.56,3.56,0,0,1,.58.58c.4-.4.8-.8,1.19-1.16V77.5c.93-.22,1.11.8,1.73,1.15.24,1.81,1.23,3.44,1.59,5.21C166.67,84.48,166,85.08,165.37,85.67Zm11.24-5.28a32.76,32.76,0,0,1-4-2.31c0-.33,0-.64,0-1s.18-.49.26-.73c.7.09,1.15.9,2,.54a.89.89,0,0,0,.59-.92c.31.55.6,1.12.9,1.69C176.53,78.63,177,79.7,176.6,80.39Zm0-4q-.61-1.12-1.25-2.2a5.82,5.82,0,0,1,.76-.39c.41.92.79,1.85,1.15,2.79A1.28,1.28,0,0,1,176.6,76.35Zm-46.66-5.27c0,.44-.8,1-1.06,1.6a.87.87,0,0,0,.27,1.15c.22.13,1.55.4,1.73.49a12.79,12.79,0,0,1,1.9,1.91c.48.62.13,1.56.18,2-.93-.09-1,1.33-1.2,1.74s1,.58,1.15.13,2.66-2.53,2.79-3a2.8,2.8,0,0,0-.18-1.87,3.2,3.2,0,0,0-1.68-1.38c-.62-.22-.49-.58-1.28-1.15S129.94,67.69,129.94,71.07Zm1.86,5.73c-.76-.4-1.15-.53-1.06-1s.49-.58-.09-.93-1.11.4-1.6.22c-.31-.45-.22.58-.75.71-.44.31.18.44.36,1,1.06.4,0,1.91,1.15,2.31.89-.22.8-1.2,1.73-1.42C132,77.16,132.6,77.16,131.81,76.81Z"/><path shape-rendering="auto" class="cls-1" d="M146.18,148.18a38,38,0,0,1-2.74,7.36,98.61,98.61,0,0,1-13.34,2.77,64.55,64.55,0,0,0,1.55-9l-.85,0a62.92,62.92,0,0,1-1.61,9.09,115.66,115.66,0,0,1-14.49.94v-9.63h-.84v9.63a116.21,116.21,0,0,1-14.6-.95l0-.18c.7-.28,1.51.09,2.25-.08.93-.49,1-1.6,1.73-2.31-.4-1.42.53-2.66.58-4h1.15a5.08,5.08,0,0,0,1.15-2.16q-4.26-.1-8.4-.31l-.86,0q-7.47-.39-14.54-1.09l-.89-.08c-3.68-.37-7.27-.8-10.78-1.28l-.3,0-.67-.09a37.12,37.12,0,0,0,1.64,3.43A45.55,45.55,0,0,1,64.81,146l-.36-.05-.58-.09-.57-.09-.17,0-.57-.09a68.41,68.41,0,0,0,103.42,0s-3.56.58-7.43,1.11c-2.7.37-6.14.8-6.2.8a6.71,6.71,0,0,0-1.1,1.75c-.1.16-1,2.43-1.57,4.2q-2.47.93-5.14,1.73a39.53,39.53,0,0,0,2.5-7.1Zm-32.33,12v8.18a68,68,0,0,1-9.73-.75l0,0h0c-2-1.5-3.47-4.4-4.59-8.31A118.54,118.54,0,0,0,113.86,160.22ZM66.49,148.63c-.37-.37-.73-.77-1.1-1.15a49.56,49.56,0,0,0,6.64,4,30.25,30.25,0,0,0,3.6,4.79A68.14,68.14,0,0,1,66.49,148.63ZM86.4,162.39a.35.35,0,0,0,.11-.33c.86-.08,1,.06,1.53-.34A23.26,23.26,0,0,0,90.36,164C89,163.53,87.7,163,86.4,162.39Zm6.38,2.51-1.09-.82a21.94,21.94,0,0,1-2.52-2.35c.81.24,1.57.74,2.46.48.4-.4.8-.76,1.15-1.16h1.15c.44-.26.75-.58.58-1.15a3.39,3.39,0,0,0-.58-.58,11.48,11.48,0,0,1,1.33-.63q1.64.27,3.31.5c1,3.54,2.3,6.36,4,8.2A67.63,67.63,0,0,1,92.78,164.89Zm21.92-4.68a117.31,117.31,0,0,0,14.24-.9c-1.13,3.9-2.67,6.8-4.65,8.3l-.06.07a68.05,68.05,0,0,1-9.53.72Zm15.16-1a100.08,100.08,0,0,0,13.06-2.63,31.35,31.35,0,0,1-7.21,8.35,67.11,67.11,0,0,1-10,2.51C127.51,165.58,128.86,162.75,129.86,159.19Zm8,5a25.9,25.9,0,0,0,6.16-7.92q2.77-.8,5.35-1.74a5.43,5.43,0,0,0-.21.89c-.07.79,1.33,1,2.5,1,.46,0,.88,0,1.17,0q-2,1.39-4.08,2.63A67.43,67.43,0,0,1,137.86,164.17Z"/><path shape-rendering="auto" d="M168.37,145.22a71.16,71.16,0,0,1-4.77,5.3,70,70,0,0,1-103.78-5.31L58.57,145a70.77,70.77,0,0,0,111,0Z"/><path shape-rendering="auto" d="M197.71,138.45a91.5,91.5,0,0,1-166.88,0l-2.16-.71a93.16,93.16,0,0,0,171.2,0Z"/><path shape-rendering="auto" d="M201.84,137.05a94.73,94.73,0,0,1-175.13,0l-1.07-.39a95.56,95.56,0,0,0,177.26,0Z"/><path shape-rendering="auto" class="cls-2" d="M40,74.86a4.5,4.5,0,0,1,1.68.86,4.22,4.22,0,0,1,1.08,1.36,4.6,4.6,0,0,1,.46,1.68,5.41,5.41,0,0,1-1,3.54A4.57,4.57,0,0,1,41,83.49a4.19,4.19,0,0,1-1.63.58,4.49,4.49,0,0,1-1.88-.15l-8.09-2.31.68-2.39,8,2.29a2.4,2.4,0,0,0,1.83-.1,2.15,2.15,0,0,0,1-1.39,2.17,2.17,0,0,0-.15-1.74,2.38,2.38,0,0,0-1.5-1.06l-8-2.29L32,72.55Z"/><path shape-rendering="auto" class="cls-2" d="M45.4,63.78A5.41,5.41,0,0,1,46.73,65a4.38,4.38,0,0,1,.73,1.46,4.32,4.32,0,0,1,.13,1.6,5.27,5.27,0,0,1-.46,1.67,4.66,4.66,0,0,1-2.7,2.55,3.68,3.68,0,0,1-2.18.15,17.53,17.53,0,0,1-3-1.12,17.58,17.58,0,0,1-2.81-1.51,3.69,3.69,0,0,1-1.32-1.74,4.66,4.66,0,0,1,.15-3.71,4.5,4.5,0,0,1,5.63-2.61L39.87,64a2.61,2.61,0,0,0-1.5.11,2,2,0,0,0-1,1.1A2,2,0,0,0,37.27,67a1.89,1.89,0,0,0,.78.92,8.59,8.59,0,0,0,.86.49q.54.27,1.39.66t1.41.61a8.78,8.78,0,0,0,.94.33,1.89,1.89,0,0,0,1.2,0,2,2,0,0,0,1.27-1.18,2,2,0,0,0,.15-1.51,2.61,2.61,0,0,0-.91-1.2Z"/><path shape-rendering="auto" class="cls-2" d="M49.22,65.14l-1.7-1.07-4.33-9.18L40.4,59.31l-1.89-1.19,4.35-6.92,1.67,1.05,4.35,9.21,2.92-4.64L53.7,58Z"/><path shape-rendering="auto" class="cls-2" d="M55,56.27,45.21,48l5.42-6.43L52.33,43l-3.82,4.54,2.3,1.93,3.25-3.86,1.7,1.44-3.25,3.86,2.38,2,3.82-4.54,1.7,1.44Z"/><path shape-rendering="auto" class="cls-2" d="M62.13,48.15,53.6,38.61,55.45,37l7,7.88L66.82,41l1.49,1.66Z"/><path shape-rendering="auto" class="cls-2" d="M76.19,37.31l-8.54-3.82,4.28,6.59-2.08,1.35-7-10.73,1.87-1.22,8.53,3.81L69,26.71l2.08-1.35,7,10.73Z"/><path shape-rendering="auto" class="cls-2" d="M80.78,34.82,75.19,23.31l2.23-1.08L83,33.73Z"/><path shape-rendering="auto" class="cls-2" d="M92.58,30l-1.46-1.89-4.29,1.51,0,2.39-2.46.86.15-13.62,1.85-.65L95,29.14Zm-5.8-7.53v4.93l3-1.05Z"/><path shape-rendering="auto" class="cls-2" d="M101.12,27.93l-.57-4.35-1,.88-.27-2.07,1-.88-.82-6.27,2.46-.32.62,4.72,2.09-1.74.27,2-2.09,1.74.48,3.71,5.76-.75.29,2.21Z"/><path shape-rendering="auto" class="cls-2" d="M118.61,26.91l-.72-2.28-4.55-.08-.81,2.25-2.61,0L114.8,14l2,0L121.21,27Zm-2.83-9.07-1.7,4.63,3.18.05Z"/><path shape-rendering="auto" class="cls-2" d="M122,27.12l.32-2L129,17.55l-5.16-.83.35-2.2,8.08,1.3-.31,2-6.77,7.61,5.41.87-.35,2.2Z"/><path shape-rendering="auto" class="cls-2" d="M139.32,31.11l0-2.39-4.34-1.36-1.41,1.93L131,28.52l8.26-10.83,1.87.58.65,13.61Zm-.16-9.5-2.93,4,3,.95Z"/><path shape-rendering="auto" class="cls-2" d="M149.26,35.56V29.86l-1.63-.8-2.26,4.58-2.22-1.1,5.67-11.47,4.5,2.22a4.59,4.59,0,0,1,1.42,1.05,4,4,0,0,1,.8,1.34,3.53,3.53,0,0,1,.18,1.47,4.11,4.11,0,0,1-.42,1.49,3.69,3.69,0,0,1-.71,1,3.44,3.44,0,0,1-.88.64,3.37,3.37,0,0,1-1,.32,3.54,3.54,0,0,1-1,0l.1,6.21Zm3.82-8a1.6,1.6,0,0,0,.09-1.32,1.88,1.88,0,0,0-1-1l-2.13-1.05-1.5,3,2.13,1.05a1.87,1.87,0,0,0,1.4.17A1.6,1.6,0,0,0,153.08,27.54Z"/><path shape-rendering="auto" class="cls-2" d="M162.42,39.56a3.49,3.49,0,0,1-2.77,1.57,4.59,4.59,0,0,1-1.66-.24,6.44,6.44,0,0,1-1.68-.85,8.43,8.43,0,0,1-1.92-1.79,5.08,5.08,0,0,1-.95-2.27l2.25-.4a3.26,3.26,0,0,0,.67,1.49,5.93,5.93,0,0,0,1.25,1.16,2.93,2.93,0,0,0,1.62.63,1.35,1.35,0,0,0,1.14-.64,1.42,1.42,0,0,0,.29-1.11,1.47,1.47,0,0,0-.2-.48,3.31,3.31,0,0,0-.47-.54L158.85,35a4.32,4.32,0,0,1-1.43-2.29,3.41,3.41,0,0,1,.69-2.59A3.94,3.94,0,0,1,159.26,29a3.43,3.43,0,0,1,1.42-.5,4.11,4.11,0,0,1,1.61.15,5.66,5.66,0,0,1,1.7.83,7.12,7.12,0,0,1,1.71,1.61,4.86,4.86,0,0,1,.83,2l-2.19.38a2.78,2.78,0,0,0-.65-1.34,6.19,6.19,0,0,0-1-.88,2.06,2.06,0,0,0-1.5-.46,1.54,1.54,0,0,0-1.05.66,1.35,1.35,0,0,0-.2.45,1.23,1.23,0,0,0,0,.52,1.86,1.86,0,0,0,.23.54,2.45,2.45,0,0,0,.46.55l1.12,1a6,6,0,0,1,1,1.13,3.44,3.44,0,0,1,.46,1.07,2.82,2.82,0,0,1,0,1.39A4.78,4.78,0,0,1,162.42,39.56Z"/><path shape-rendering="auto" class="cls-2" d="M167.44,49.21l1.62-6.49-2.56.3-2.65,2.79-1.8-1.71,8.81-9.29,1.8,1.71-3.83,4,7.11-.94,2.2,2.09-6.58.77-2,8.72Z"/><path shape-rendering="auto" class="cls-2" d="M170.47,52.6l9.83-8.19,1.59,1.91-9.83,8.19Z"/><path shape-rendering="auto" class="cls-2" d="M174,56.83l10.67-7.06,4.64,7L187.44,58l-3.27-4.95-2.5,1.66,2.79,4.21-1.86,1.23L179.8,56l-2.59,1.72,3.27,4.95-1.86,1.23Z"/><path shape-rendering="auto" class="cls-2" d="M188.38,72a7.94,7.94,0,0,1-2.2.72,4,4,0,0,1-1.85-.18,4.84,4.84,0,0,1-1.7-1,5.33,5.33,0,0,1-1.15-1.64,4.69,4.69,0,0,1-.18-3.72,3.68,3.68,0,0,1,1.3-1.76,23.59,23.59,0,0,1,5.77-2.68,3.68,3.68,0,0,1,2.18.13,4.68,4.68,0,0,1,2.73,2.54,5.32,5.32,0,0,1,.52,1.89,4.34,4.34,0,0,1-1,3.1,5.53,5.53,0,0,1-1.22,1.1l-1.06-2.28a2.2,2.2,0,0,0,.72-2.88,2,2,0,0,0-1.3-1.17,2.36,2.36,0,0,0-.53-.08,2.4,2.4,0,0,0-.64.09,7.25,7.25,0,0,0-.93.32q-.55.23-1.41.63t-1.39.68a8.9,8.9,0,0,0-.85.49,2.33,2.33,0,0,0-.49.43,1.87,1.87,0,0,0-.28.48,2,2,0,0,0,.07,1.74,2.32,2.32,0,0,0,1.41,1.32,2.51,2.51,0,0,0,1.79-.2l.44-.2-1-2.13,1.89-.88,2,4.38Z"/><path shape-rendering="auto" class="cls-2" d="M193,83.23l-1.49.41a8.55,8.55,0,0,1-1.33.24,4.76,4.76,0,0,1-1.24,0,3.73,3.73,0,0,1-1.2-.43,4.6,4.6,0,0,1-2.3-2.93,4.92,4.92,0,0,1-.19-2,4.8,4.8,0,0,1,.58-1.76,3.74,3.74,0,0,1,.79-1,4.47,4.47,0,0,1,1-.68,9.35,9.35,0,0,1,1.26-.49l1.48-.44,1.49-.41a9.36,9.36,0,0,1,1.33-.25,4.49,4.49,0,0,1,1.23,0,3.73,3.73,0,0,1,1.2.43,4.81,4.81,0,0,1,1.42,1.18,4.93,4.93,0,0,1,.88,1.77,4.59,4.59,0,0,1-.39,3.7,3.72,3.72,0,0,1-.79,1,4.77,4.77,0,0,1-1,.69,8.54,8.54,0,0,1-1.26.5Zm-.69-2.38q.88-.25,1.45-.45a7.66,7.66,0,0,0,.93-.37,2.26,2.26,0,0,0,.56-.37,2.06,2.06,0,0,0,.34-.42,2.09,2.09,0,0,0,.29-.79,2.22,2.22,0,0,0-.08-.95,2.26,2.26,0,0,0-.44-.85,2,2,0,0,0-.66-.52,1.84,1.84,0,0,0-.51-.17,2.53,2.53,0,0,0-.66,0,7.56,7.56,0,0,0-1,.18q-.59.14-1.47.39t-1.45.45a7.49,7.49,0,0,0-.93.37,2.49,2.49,0,0,0-.56.36,1.82,1.82,0,0,0-.34.41,2,2,0,0,0-.28.8,2.26,2.26,0,0,0,.08,1,2.19,2.19,0,0,0,.44.84,2.09,2.09,0,0,0,1.17.69,2.28,2.28,0,0,0,.67,0,7.59,7.59,0,0,0,1-.18Q191.44,81.1,192.32,80.85Z"/><path shape-rendering="auto" class="cls-2" d="M84.63,181.91l-1.5-.62.61-6.28-4,4.88-1.5-.62,1.34-10.21,1.87.77-1,6.39,4.08-5.11,1.34.56-.72,6.49L89,173l1.87.77Z"/><path shape-rendering="auto" class="cls-2" d="M94.34,184.79l-.11-1.85L90.81,182l-1,1.55-2-.52,6.06-8.69,1.47.39.95,10.55Zm-.44-7.38-2.15,3.17,2.39.64Z"/><path shape-rendering="auto" class="cls-2" d="M103.44,186.43l-1.36-4.21-1.39-.21-.58,3.93-1.91-.28,1.46-9.85,3.86.57a3.58,3.58,0,0,1,1.3.44,3.1,3.1,0,0,1,.91.8,2.73,2.73,0,0,1,.49,1,3.2,3.2,0,0,1,0,1.2,2.89,2.89,0,0,1-.28.92,2.67,2.67,0,0,1-.5.68,2.59,2.59,0,0,1-.65.47,2.77,2.77,0,0,1-.73.25l1.56,4.57Zm.91-6.85a1.24,1.24,0,0,0-.24-1,1.46,1.46,0,0,0-1-.51l-1.83-.27-.38,2.6,1.83.27a1.45,1.45,0,0,0,1.08-.21A1.24,1.24,0,0,0,104.35,179.58Z"/><path shape-rendering="auto" class="cls-2" d="M114.46,184.22a2.78,2.78,0,0,1-.34,1.27,2.81,2.81,0,0,1-.82.91,3.58,3.58,0,0,1-1.19.54,5,5,0,0,1-1.46.15,6.54,6.54,0,0,1-2-.36,3.94,3.94,0,0,1-1.57-1.09l1.31-1.21a2.55,2.55,0,0,0,1.06.7,4.63,4.63,0,0,0,1.31.23,2.3,2.3,0,0,0,1.33-.26,1.05,1.05,0,0,0,.48-.9,1.11,1.11,0,0,0-.27-.85,1.16,1.16,0,0,0-.33-.23,2.57,2.57,0,0,0-.53-.15l-1.2-.21a3.36,3.36,0,0,1-1.9-.9,2.64,2.64,0,0,1-.64-2,3,3,0,0,1,.28-1.21,2.67,2.67,0,0,1,.72-.92,3.18,3.18,0,0,1,1.11-.58,4.39,4.39,0,0,1,1.46-.17,5.55,5.55,0,0,1,1.79.34,3.77,3.77,0,0,1,1.37.95l-1.28,1.17a2.16,2.16,0,0,0-1-.6,4.76,4.76,0,0,0-1-.16A1.6,1.6,0,0,0,110,179a1.2,1.2,0,0,0-.41.87,1,1,0,0,0,.05.38,1,1,0,0,0,.21.34,1.53,1.53,0,0,0,.37.26,2,2,0,0,0,.53.17l1.17.21a4.67,4.67,0,0,1,1.12.33,2.67,2.67,0,0,1,.75.51,2.17,2.17,0,0,1,.55.93A3.7,3.7,0,0,1,114.46,184.22Z"/><path shape-rendering="auto" class="cls-2" d="M116.17,187.12l-.09-1.56,3.85-6.89-4.06.24-.1-1.73,6.35-.37.09,1.54-3.86,6.92,4.26-.25.1,1.73Z"/><path shape-rendering="auto" class="cls-2" d="M130.62,185.57l-.86-1.64-3.49.57-.31,1.84-2,.33,2-10.41,1.5-.25,5.19,9.24ZM127.2,179l-.66,3.78,2.44-.4Z"/><path shape-rendering="auto" class="cls-2" d="M142.39,182.46l-1.55.47-3.49-5.26,0,6.31-1.55.47-5.41-8.77,1.94-.58,3.28,5.57-.06-6.53,1.39-.42,3.55,5.49-.32-6.46,1.94-.58Z"/><path shape-rendering="auto" class="cls-2" d="M151.74,178.56l-1.26-1.37-3.22,1.45.18,1.85-1.85.83-.79-10.56,1.39-.63,7.4,7.58Zm-5-5.45.34,3.82,2.26-1Z"/><polygon class="cls-2" points="15.53 118.52 15.53 106.86 19.81 103.77 19.81 100.67 15.53 103.77 15.53 93.06 8.94 90.06 8.94 108.37 5.87 110.6 5.87 113.65 8.94 111.42 8.94 121.86 23.71 128.38 23.71 122.01 15.53 118.52"/></g></svg>