<svg xmlns="http://www.w3.org/2000/svg" viewBox="0 0 228 202"><defs><style>.cls-1{fill:#f26f21;}.cls-2{fill:#231f20;}</style></defs><title>lazarski_logo_sygnet_top_en</title><g id="Layer_1" data-name="Layer 1"><path class="cls-1" d="M181.36,86.73a2.21,2.21,0,0,0-.09-.49,68,68,0,0,0-10.48-25.4l-.3-.43a68.43,68.43,0,0,0-44.7-28.75c-.85-.15-1.7-.3-2.57-.42l-1.28-.2-1.48-.16c-.83-.08-1.66-.14-2.5-.19h-.63c-1.07,0-2.16-.08-3.25-.08s-2.25,0-3.36.09h-.33q-1.56.08-3.1.24l-.5.1q-1.29.14-2.58.33l-1.57.25-.7.12A68.12,68.12,0,0,0,72.86,44.42l-.62.49-.23.18-.36.28a68.87,68.87,0,0,0-14,15c-.27.39-.52.78-.78,1.17A68,68,0,0,0,46.79,86.33l-.07.39q-.32,1.79-.56,3.6l.84.12q.25-2,.61-3.92c.16-.56.34-1.11.52-1.65a18.17,18.17,0,0,0,1.43,5.92H50l.57.07.85.11,2.46.3a2.23,2.23,0,0,1,.16-.6c.71-.71.8-1.82,1.73-2.31v-1.1c.89-.67,2.65-.34,3.84-.21.44.31.84.57,1.22.8-.6,1.34-1.16,2.68-1.68,4l.87.09c.48-1.24,1-2.47,1.54-3.69a10,10,0,0,1,2.89,2.43A1.7,1.7,0,0,1,65,92.42l1.1.1v-.68c.84-1.25,2.43-1.29,3.46-2.31h.19q.94.52,1.92,1c-.29.79-.57,1.58-.84,2.36l.87.07c.24-.69.48-1.37.73-2q2.73,1.34,5.78,2.49l3,.18a69,69,0,0,1-8.46-3.47q1-2.77,2.26-5.52a12.37,12.37,0,0,1,3.74-.28c.8-.36.53-1.07.58-1.73,1.15-.27,2.21-.84,3.41-1.16.18.22.4.4.58.62.4-.31.75-.62.58-1.2a1,1,0,0,1,1.15.62c.71-.71.8-1.82,1.73-2.35,0-.59.23-1.26-.43-1.67h.09q1.51.52,3.1,1c-1.8,4.88-3.46,10-4.89,15.35h.87c1.43-5.24,3.07-10.35,4.85-15.17a81.71,81.71,0,0,0,10.7,2.17c-.79,4.3-1.52,8.83-2.17,13.47h.85c.65-4.61,1.37-9.1,2.16-13.37a97,97,0,0,0,11.7.76V94.53h.84V81.75A97.1,97.1,0,0,0,126.13,81c.79,4.27,1.52,8.76,2.17,13.37h.85c-.65-4.64-1.39-9.16-2.18-13.47a83,83,0,0,0,9.29-1.8c.49.39.08,1.41.9,1.61v1.73c-.93.22-.27,1.51-1.15,1.73-1.46,0-2.67-.12-3.91.77.75,1.24.24,3.68.51,5.06a5.35,5.35,0,0,0,1.86,1.18c.8,0,1.91.5,2.66.5,1.7-.87,2.48-1.13,3.37-2.42-1-.58-.31-2-.45-2.78a1.36,1.36,0,0,0,.28-.21q.83,2.6,1.59,5.27a1.3,1.3,0,0,1-.15.18c-1.55-.22-3,1.57-4.58,1.44a7.88,7.88,0,0,0-.57-.62c-.75.8-.34.55-1.13,1.35a1.62,1.62,0,0,1,0,.28c2.38-.08,4.74-.18,7-.29h.87l3.3-.17,3-.18q3.24-.2,6.38-.43l.87-.07c3.77-.29,7.43-.61,11-1l.87-.09q3.25-.33,6.36-.71c-2.7-2.35-5.89-4-8.64-6.4.8-.13,1.73.4,2.31-.58a1,1,0,0,1-.57-1.25c1.42-.18,1.5,1.91,2.92,1.74A42.84,42.84,0,0,0,176,89.3c.19.57.37,1.15.55,1.72l.68-.09h.52l1-.12,2.3-.31h.06l.84-.12Q181.69,88.5,181.36,86.73ZM53,79.13c-.93.23-.26,1.51-1.15,1.73a32.16,32.16,0,0,1-1.77,8.67v.14A16.59,16.59,0,0,1,49,83.8V82.52l.2-.54a.77.77,0,0,0,1.19-.68c.66-.66,1.68-2.53,1.33-3.07.57-3.51,2-4.8,3-6.62C54.79,74.29,53.25,76.56,53,79.13ZM156.24,65.67h0c.26-.4.58-.76,1.15-.58l1,1c-.32.4-.66.79-1,1.18C156.79,66.65,156.15,65.95,156.24,65.67Zm1,2.95h0a1,1,0,0,0,1.55-.06,9.76,9.76,0,0,1-.81-.69c.36-.38.69-.77,1-1.16l.11.11a6.23,6.23,0,0,1,3.45.58c-.18.58.17.89.57,1.16A4.4,4.4,0,0,1,162,70.87h-1.18c-1,.53-1.06,1.64-1.78,2.31v.38q-1.39-2-2.88-4A7,7,0,0,0,157.23,68.62Zm-8.83,7.2q.95,1.7,1.84,3.42c-.62-.27-.81-1.07-2.24-1.16.13-.58-.83-1.53-1.22-1.8A7.35,7.35,0,0,1,148.4,75.82Zm-4.28-14.23h0c-.8.36-.53,1.11-.58,1.73,1,.58.44,1.55.58,2.31l-.8.51q-2.14-3-4.51-5.92A28.27,28.27,0,0,0,142.5,58c-.17.47,0,1.15-.69,1.3A14.37,14.37,0,0,1,144.12,61.59Zm-12,.4h0l-.7.21a66.62,66.62,0,0,0-7.89-12.27,21.36,21.36,0,0,0,2.81-1.09q2.26,1.89,4.39,3.93c.08,1.11.89,2.13.63,3.29.88.27.22,1.51,1.15,1.73a7.39,7.39,0,0,1-.58,3.51C132,61.55,132.08,61.77,132.14,62ZM118.6,51a29.91,29.91,0,0,0,4.08-.8,63.43,63.43,0,0,1,8,12.26A56.73,56.73,0,0,1,123.22,64,67,67,0,0,0,118.6,51Zm3.77,13a65.85,65.85,0,0,1-7.88.52V51.28a30.45,30.45,0,0,0,3.21-.18A63,63,0,0,1,122.37,64ZM132,50.28v0c-.82.2-.4,1.22-.9,1.61q-1.89-1.79-3.89-3.47a13.18,13.18,0,0,0,2.09-1.4c1.69.91,3.36,1.93,5,3A11.33,11.33,0,0,1,132,50.28Zm-2-3.86,0,0a7.79,7.79,0,0,0,1.27-1.59,76.17,76.17,0,0,1,7.62,3.35c.42.67.23,1.42,1.08,2,.18.57-.18.89-.58,1.15.4.31.75.62.58,1.2h-1.14a.8.8,0,0,0,0-.29,1.23,1.23,0,0,0-.61-.87h-.55l-.77-.54a1.18,1.18,0,0,0,.74-.61c.18-.53-.17-.84-.57-1.16a8.88,8.88,0,0,1-1.65.73A59.66,59.66,0,0,0,129.94,46.42Zm10.72.64c-.6.07-1.27-.17-1.82.13q-3.49-1.72-7.24-3.16a5.58,5.58,0,0,0,.39-1.55,53.3,53.3,0,0,1,6.51,1.78l.5.49a7,7,0,0,0-.58.58C138.88,46.3,140,46.42,140.66,47.06Zm-4.77,7.1c1,.53,1.37,1.73,2.3,2.36a5.94,5.94,0,0,0,1.23,2.38c-.37.21-.75.41-1.15.61q-.67-.8-1.36-1.59c-.12-1.31-1.4-2.23-1-3.72Zm3.66-11.68,0,0-.57-.58c-.29.51-1,.7-1.15,1.3A52.59,52.59,0,0,0,132,41.62a5.41,5.41,0,0,0-.27-1.27,61.73,61.73,0,0,1,9,1.69C140.74,43,139.85,42.14,139.55,42.48ZM132.65,39l0,0,.83-.83a19,19,0,0,1,2,.16,1.28,1.28,0,0,0,.61.14H135c-.44.45-.91.89-1.36,1.34-.77-.11-1.53-.2-2.28-.28a7,7,0,0,0-.83-1.2A3.09,3.09,0,0,1,132.65,39ZM90.06,36.39a48.88,48.88,0,0,1,15-4.32c1.5-.2,3-.35,4.54-.45.93.16,1.89.23,2.83.37a1.47,1.47,0,0,1,.5-.5h.7c.58.89,1.48.43,2.26.52a.89.89,0,0,1,.44-.47H118c5.52.32,7.4,2.45,9.22,4.21A19.36,19.36,0,0,0,124,34.39a32.38,32.38,0,0,0-10-1.51c-6.55,0-12.29,1.73-15.43,4.42q-1.18-.09-2.37-.09c-.63,0-1.26,0-1.89.06a1.8,1.8,0,0,0-.39-.34,1,1,0,0,1-.32.39l-1.45.13c.14-.54-.15-.85-.54-1.15a4.16,4.16,0,0,1-2.21.36ZM94.79,47.9a1.78,1.78,0,0,0,.07.37q-1.62,1-3.23,2.13l-.29.2q-1.29.91-2.57,1.89V51.4c-.53-.76-1.56-1.1-2-1.88a85.27,85.27,0,0,1,8.36-4c-.64.72-1.72,1-2.16,2C93.48,48.24,94.16,47.91,94.79,47.9Zm2-8.4c-1.87.19-3.81.49-5.78.89l1.17-1.1a4.6,4.6,0,0,0,2.31-1.13h1.74a12.63,12.63,0,0,1,1.53.06,7.16,7.16,0,0,0-1,1.27Zm.07,5.87-1.71.16c.54-.22,1.07-.45,1.62-.66A2,2,0,0,0,96.86,45.37Zm-8.07-2.63A15.71,15.71,0,0,1,90,41.47a60.45,60.45,0,0,1,6.5-1.08,5.26,5.26,0,0,0-.27,1.27,54.91,54.91,0,0,0-7.33,2A1,1,0,0,1,88.79,42.74ZM86.48,48.5A16.71,16.71,0,0,0,89.34,45a1.17,1.17,0,0,0-.11-.6,53.92,53.92,0,0,1,6.94-1.93A5.64,5.64,0,0,0,96.56,44a86.28,86.28,0,0,0-10.08,4.63Zm-.64,8.09a1,1,0,0,1,1.15.58A14,14,0,0,0,88.14,56h1.77c-.17.58.13.89.58,1.16a1,1,0,0,1,1.15-.58c.4-.26.71-.58.58-1.11-.4-.85-1.11-.58-1.73-.62-.18-.53,1.9-2.53,2.3-2.8.54-.46.26-1-.2-1.33q1.4-1,2.81-1.83a1.39,1.39,0,0,0,.68,0c-.36.44-.72.83-1.08,1.27a7.33,7.33,0,0,1,.89,2.66,85.59,85.59,0,0,0-6.1,6.65,26.74,26.74,0,0,1-4.17-2.61Zm9.2,0-1.14.11c-.25.65-1.3.88-1,1.84a13.78,13.78,0,0,0,1.26,1c.23.56-.09.9-.46,1.21a1.1,1.1,0,0,1,.63.7,39.16,39.16,0,0,1-3.81-1.58q2.3-2.73,4.8-5.28A3,3,0,0,0,95,56.59ZM79.51,69.36c.4-.4.75-.8,1.15-1.15-.35-.76.88-1,.58-1.73a13.92,13.92,0,0,1-1.11-1.2c.31-.89-.66-1.46-.58-2.31.69-.43.6-1,.56-1.67q1.55-1.59,3.16-3.07a4,4,0,0,1,1.41-.45l.27-.26a27,27,0,0,0,4.22,2.68q-1,1.17-1.89,2.37a7,7,0,0,0-1.81,1.34c-1.13,1.23-1.68,3.13-3.08,4.29a5.24,5.24,0,0,1-1.15,2.31H79.51Zm-2.87,10.2-2.31.78c-.8-.13-1.73.4-2.3-.58V78a13.46,13.46,0,0,1,1.15-1.16,1,1,0,0,0-.58-1.16c-.71.67-1.81.8-2.3,1.73-1.29.13-.22-.89-.58-1.16A10.36,10.36,0,0,1,72.6,74a6.61,6.61,0,0,1,.58.58c.4-.31.71-.62.58-1.16-.66-.71-1.81-.8-2.3-1.78.49-1,1.17-.63,2-.77l.63.47c.51,2,.82,3.48,1.38,5.54-.57-.18-.88.18-1.15.58a1,1,0,0,1-.53,1.16c.22.89,1.5.27,1.73,1.15l1.31-.5Zm9.61-2.14a33.1,33.1,0,0,0-8.46,1.78l.2-.39c1.82-.69,3.65-1.36,5.54-1.94l.37-.35q1.18.46,2.43.9Zm3.63.25q-2.81-.82-5.37-1.81l.14-.15H89.3c-.18.58.18.89.58,1.16l.29.06Zm0-16.4-.8.41.89-1.1a40.29,40.29,0,0,0,4.48,1.84,2.77,2.77,0,0,0,.07.64,5.84,5.84,0,0,0,1.38.7c-.87,1.74-1.73,3.58-2.57,5.48-.07-.77.36-1.65-.57-2.2-.26.4-.58.76-1.15.58a17.15,17.15,0,0,1-.58-5.2A14.18,14.18,0,0,0,89.87,61.27ZM101.25,80A80.54,80.54,0,0,1,90.7,77.9l.4-1a5.35,5.35,0,0,1,2.23-.53c.4-.4.75-.8,1.15-1.15V73.45a3.92,3.92,0,0,1-1.29-1.77c1.12-2.64,2.27-5.14,3.43-7.49a1.89,1.89,0,0,1,.35.37,8.8,8.8,0,0,1,.6-1.19,58.24,58.24,0,0,0,7,1.42C103.43,69.3,102.29,74.47,101.25,80ZM99.9,59a32.47,32.47,0,0,1,2.7-2c.59.08.87-.26,1.14-.69-.23-.56,0-.9.47-1.2l1.14-.11c-.64-.61-.06-2-.28-2.92.76-.43.43-1.11.41-1.78a.65.65,0,0,1,.06-.14,30.1,30.1,0,0,0,3.85.76,68.24,68.24,0,0,0-4.56,13,57.2,57.2,0,0,1-6.75-1.34,26.43,26.43,0,0,1,2-2.42Zm13.74,21.85a95,95,0,0,1-11.55-.74c1-5.59,2.17-10.76,3.35-15.25a69.17,69.17,0,0,0,8.2.54Zm-8-16.83a64,64,0,0,1,4.61-13c1.09.12,2.22.18,3.38.2V64.59A66.9,66.9,0,0,1,105.64,64.06Zm8.42-13.62a32.09,32.09,0,0,1-7.73-.91c.51-.24,1.07-.44,1.14-.94-.77-.64-1.72-.37-2.3-1.25-.34-1.22.65-2.56,1-3.71.19-1.72-1.88-.09-2.49-.07-1.43-1.42-.8-1.84-1.22-2.07a3.33,3.33,0,0,1-5.29.51.77.77,0,0,0-.16.34V42c0-2.14,1.77-4.21,4.88-5.75a28.21,28.21,0,0,1,12.23-2.5,28.24,28.24,0,0,1,12.23,2.5,14.37,14.37,0,0,1,1.77,1,10.9,10.9,0,0,1,1,.77,5.35,5.35,0,0,1,2.06,4c0,2.24-1.78,4.35-4.88,5.92a27.92,27.92,0,0,1-12.23,2.49Zm.43,30.46h0V65.45a68.74,68.74,0,0,0,8.1-.54c1.19,4.49,2.33,9.67,3.38,15.26A94.89,94.89,0,0,1,114.49,80.9Zm19.2-2.53h0a1.23,1.23,0,0,0,.35.37,72.64,72.64,0,0,1-7.26,1.3c-1-5.58-2.19-10.75-3.38-15.26A57.87,57.87,0,0,0,131,63.2c1.9,3.72,3.76,7.89,5.52,12.36A6.24,6.24,0,0,1,133.69,78.37Zm6.22-11.28v0c-.71.4-.54.49-1-.23s0-1.29-.13-1.6-1.45-.52-1.45-.52-1.28.45-1.15,1a6.59,6.59,0,0,0,1.15,1.73,5.7,5.7,0,0,0,1.59,1.34c-1.28.8-.18,1.6-1.19,2.58v1.2a13.82,13.82,0,0,1-1.06,1.07c-1.55-3.82-3.17-7.4-4.82-10.65l.58-.18a6.91,6.91,0,0,0,2.22,2.78c1-.58.84-1.73,1-2.53.75-.35.64.22,1.39-.14l1.76,1.75a1,1,0,0,0,.58-1.15c-.4-.27-.75-.58-.58-1.16a1.81,1.81,0,0,0,.4-.35q1.81,2.28,3.49,4.65a8.07,8.07,0,0,0-1.39,1.31C140.79,67.94,140.29,67.09,139.91,67.09Zm14.52,22.28v0c-.75.89-2.08.84-2.87,1.73a2.33,2.33,0,0,1-1.18-2c-.36-.4-.5-2.21-.9-2.57-.84-.09-1.91.89-2.79.53-1.37.71-2,2-3.5,2.58a4.41,4.41,0,0,0-.66.93q-.92-3.17-1.93-6.25a1.35,1.35,0,0,1,0-.2c.09-.84-.49-1.25-.09-2.19,1.15.09.94-1.34,2.27-.81.93-.49.75-1.51,1.41-2.18.58-.18,1.79,1.13,1.92,1.67s2.35,1.17,3.59,1.28c3,.27,1.92,1.86,2.68,2-.51,0-3.08-.08-3.56.36.37,1.28,1.92.88,2.28,1.28s1.31-.17,1.71-.85q1.11,2.51,2.09,5A2.94,2.94,0,0,1,154.43,89.37Zm5.23.57h0a7.47,7.47,0,0,0-2.27,0q1.08-.58,2.1-1.18A1.26,1.26,0,0,1,159.66,89.94Zm1.92-3.39,0-.09h-1.31c-.4.4-.8.76-1.15,1.16a1.08,1.08,0,0,0,0,.4q-1.54.92-3.24,1.78-1.32-3.46-2.89-6.88a.93.93,0,0,0-.06-.39c-.09-.8.81-.07,1-.64s-.37-.36-.64-.9a2.42,2.42,0,0,0-1.61-.75q-.9-1.83-1.88-3.64a2.86,2.86,0,0,0,2,1.18c1.37.71.78.73,1.8,1.8,0,.44.89,1.16.94,1.69s.53.4,1,.85a4.13,4.13,0,0,1,1.13,2c.13.62.11-.58,1.48-.62s0-.31.93-.75.67,0,1.07.31.22-.49.88-1,.84-.64.27-1-.17-.64-.93-.24,0,.76-1.51.53-.13-.8-.61-1.33.19-1-1.89-1c-.8-.4-.68-.55-.73-1.22.4-.36.75-.76,1.15-1.16,1.65-.64,2-1.53,1.68-2.28-.35-.36-1.27-.5-1.67-.9.13-1.16-1.07-1.75-1.74-2.59a1.79,1.79,0,0,1,0-.35l.47-.37q1.83,2.39,3.52,4.91v.43a3.63,3.63,0,0,0-1.2,2.55c1,1,2,.64,3,1.62a7.66,7.66,0,0,0,.6-.85q1.64,2.72,3.09,5.55C163.62,85.08,162.64,85.83,161.58,86.55Zm3.58-2.84,0,0q-1.55-3-3.33-5.91a3.48,3.48,0,0,0,.13-.53,3.56,3.56,0,0,1,.58.58c.4-.4.8-.8,1.19-1.16v-1.1c.93-.22,1.11.8,1.73,1.15.24,1.81,1.23,3.44,1.59,5.21C166.46,82.52,165.79,83.12,165.16,83.71Zm11.23-5.32h0a32.76,32.76,0,0,1-4-2.31v-1c0-.36.18-.49.26-.73.7.09,1.15.9,2,.54a.89.89,0,0,0,.59-.92c.31.55.6,1.12.9,1.69C176.32,76.65,176.79,77.65,176.39,78.39Zm0-4v0q-.61-1.12-1.25-2.2a5.82,5.82,0,0,1,.76-.39c.41.92.79,1.85,1.15,2.79A1.28,1.28,0,0,1,176.39,74.35Z"/><path class="cls-1" d="M129.73,69.07v0c0,.44-.8,1-1.06,1.6a.87.87,0,0,0,.27,1.15c.22.13,1.55.4,1.73.49a12.79,12.79,0,0,1,1.9,1.91c.48.62.13,1.56.18,2-.93-.09-1,1.33-1.2,1.74s1,.58,1.15.13,2.66-2.53,2.79-3a2.8,2.8,0,0,0-.18-1.87,3.2,3.2,0,0,0-1.68-1.38c-.62-.22-.49-.58-1.28-1.15S129.73,65.73,129.73,69.07Z"/><path class="cls-1" d="M131.6,74.81l0,0c-.76-.4-1.15-.53-1.06-1s.49-.58-.09-.93-1.11.4-1.6.22c-.31-.45-.22.58-.75.71-.44.31.18.44.36,1,1.06.4,0,1.91,1.15,2.31.89-.22.8-1.2,1.73-1.42C131.79,75.16,132.39,75.16,131.6,74.81Z"/><polygon class="cls-1" points="89.87 61.27 89.87 61.27 89.88 61.27 89.87 61.27"/><path class="cls-1" d="M146,146.22a38,38,0,0,1-2.74,7.36,98.61,98.61,0,0,1-13.34,2.77,64.55,64.55,0,0,0,1.55-9h-.85a62.92,62.92,0,0,1-1.61,9.09,115.66,115.66,0,0,1-14.49.94v-9.63h-.84v9.63a116.21,116.21,0,0,1-14.6-.95v-.18c.7-.28,1.51.09,2.25-.08.93-.49,1-1.6,1.73-2.31-.4-1.42.53-2.66.58-4h1.18a5.08,5.08,0,0,0,1.15-2.16q-4.26-.1-8.4-.31h-.86q-7.47-.39-14.54-1.09l-.89-.08q-5.52-.55-10.78-1.28h-.3l-.67-.09a37.12,37.12,0,0,0,1.64,3.43A45.55,45.55,0,0,1,64.6,144l-.36-.05-.58-.09-.57-.09h-.17l-.57-.09a68.41,68.41,0,0,0,103.42,0s-3.56.58-7.43,1.11c-2.7.37-6.14.8-6.2.8a6.71,6.71,0,0,0-1.1,1.75c-.1.16-1,2.43-1.57,4.2q-2.47.93-5.14,1.73a39.53,39.53,0,0,0,2.5-7.1Zm-32.33,12v8.18a68,68,0,0,1-9.73-.75h0c-2-1.5-3.47-4.4-4.59-8.31a118.54,118.54,0,0,0,14.33.92ZM66.28,146.67c-.37-.37-.73-.77-1.1-1.15a49.56,49.56,0,0,0,6.64,4,30.25,30.25,0,0,0,3.6,4.79A68.14,68.14,0,0,1,66.28,146.67Zm19.91,13.76a.35.35,0,0,0,.11-.33c.86-.08,1,.06,1.53-.34A23.26,23.26,0,0,0,90.15,162,40,40,0,0,1,86.19,160.43Zm6.38,2.51-1.09-.82A21.94,21.94,0,0,1,89,159.77c.81.24,1.57.74,2.46.48.4-.4.8-.76,1.15-1.16h1.15c.44-.26.75-.58.58-1.15a3.39,3.39,0,0,0-.58-.58,11.48,11.48,0,0,1,1.33-.63q1.64.27,3.31.5c1,3.54,2.3,6.36,4,8.2a67.63,67.63,0,0,1-9.79-2.5Zm21.92-4.68a117.31,117.31,0,0,0,14.24-.9c-1.13,3.9-2.67,6.8-4.65,8.3l-.06.07a68.05,68.05,0,0,1-9.53.72Zm15.16-1a100.08,100.08,0,0,0,13.06-2.63A31.35,31.35,0,0,1,135.5,163a67.11,67.11,0,0,1-10,2.51c1.8-1.87,3.15-4.7,4.15-8.26Zm8,5a25.9,25.9,0,0,0,6.14-7.92q2.77-.8,5.35-1.74a5.43,5.43,0,0,0-.21.89c-.07.79,1.33,1,2.5,1h1.17q-2,1.39-4.08,2.63a67.43,67.43,0,0,1-10.89,5.09Z"/><path d="M197.5,136.49a91.5,91.5,0,0,1-166.88,0l-2.16-.71a93.16,93.16,0,0,0,171.2,0Z"/><path d="M201.63,135A94.73,94.73,0,0,1,26.5,135l-1.07-.39a95.56,95.56,0,0,0,177.26,0Z"/><path d="M168.16,143.26a71.15,71.15,0,0,1-4.77,5.3,70,70,0,0,1-103.78-5.31L58.36,143a70.77,70.77,0,0,0,111,0Z"/><path d="M64.56,49.54A70,70,0,0,1,183.5,90l.84-.13A70.85,70.85,0,0,0,43.79,90l.84.13A69.87,69.87,0,0,1,64.56,49.54Z"/><path d="M43.65,93.59C24.47,90.72,10.79,86.87,5.17,82a6.52,6.52,0,0,1-2.6-4.78c0-2.48,1.86-4.53,4.71-6.33s7.85-3.7,13-5.22l-1,1.23a43,43,0,0,0-11.17,5c-2.64,1.65-3.58,3.92-3.55,5.21a6.37,6.37,0,0,0,2,4.06,23.3,23.3,0,0,0,6.23,3.54C18.19,87,26.22,89.19,36.16,91,56,94.55,83.59,96.77,114,96.77c26.62,0,51-1.7,70.05-4.51s32.67-6.84,37.37-11a6.35,6.35,0,0,0,2.06-4.05,7.1,7.1,0,0,0-3.71-5.49A44.72,44.72,0,0,0,208.4,67l-1-1.22c5.3,1.53,10.23,3.31,13.19,5.15s4.81,3.89,4.84,6.41a6.52,6.52,0,0,1-2.6,4.78,25.33,25.33,0,0,1-6.72,3.9c-5.71,2.42-13.85,4.57-23.89,6.37C172.15,96,144.51,98.18,114,98.18c-26.72,0-51.22-1.7-70.37-4.53Z"/><path d="M114.26,145.41a318.31,318.31,0,0,0,69.81-7.54c14.72-3.39,26.12-7.5,33.76-11.67a18.53,18.53,0,0,0,3.65-2.54A31.41,31.41,0,0,0,224,120.9c-6.33,5-21.34,11.47-40.46,15.84a316.24,316.24,0,0,1-69.33,7.49h-.47a316.23,316.23,0,0,1-69.33-7.49C25.36,132.37,10.34,125.94,4,120.9a31.37,31.37,0,0,0,2.57,2.76,18.47,18.47,0,0,0,3.65,2.54c7.64,4.17,19,8.28,33.76,11.67a318.31,318.31,0,0,0,69.81,7.54Z"/><path d="M114.26,147.78a319.54,319.54,0,0,0,68.86-7.42,154.6,154.6,0,0,0,25.15-7.78h.05a43.71,43.71,0,0,0,9.45-5.16,151.66,151.66,0,0,1-34.83,12.14,318.84,318.84,0,0,1-68.68,7.4h-.47a318.83,318.83,0,0,1-68.68-7.4,151.67,151.67,0,0,1-34.83-12.14,43.72,43.72,0,0,0,9.51,5.14h0A154.55,154.55,0,0,0,45,140.34a319.53,319.53,0,0,0,68.86,7.42Z"/><path d="M214,83c-1.83.6-3,1-4.81,1.54h-.06A161.54,161.54,0,0,1,182.7,90.2c-18.63,2.7-42.57,4.33-68.67,4.33-29.84,0-56.85-2.13-76.32-5.55a138.54,138.54,0,0,1-18.83-4.46h0c-1.79-.53-3-.94-4.81-1.54-.89-.29-2-.66-4-1.45l-.35-.16a28.9,28.9,0,0,0,4.75,2.43c5.4,2.24,13.32,4.24,23.07,6,19.55,3.43,46.59,5.56,76.47,5.56,26.14,0,50.12-1.63,68.79-4.34,17.09-2.46,29.75-5.9,35.46-9.65l-.32.14C216,82.32,214.88,82.69,214,83Z"/><path d="M114,5.9A93.24,93.24,0,0,0,21.92,85.46l1.64.46a91.46,91.46,0,0,1,181,0l1.64-.45A93.27,93.27,0,0,0,114,5.9Z"/><path d="M47.13,32.12A94.7,94.7,0,0,1,207.7,85l.82-.25a95.54,95.54,0,0,0-188.92,0l.82.26A94.53,94.53,0,0,1,47.13,32.12Z"/></g><g id="Layer_2" data-name="Layer 2"><path class="cls-2" d="M203.08,126.76l-9.45-11-3.3,4.75v10.35l-6.6,1.65V98.1l6.6-1.2v14.48L200,94.9l8-2.18L198,109.37,210.15,124Z"/><path class="cls-2" d="M212.84,123V91.18l6.6-3.3v31.66Z"/><path class="cls-2" d="M8.74,119.92V88.16l6.6,3v25.44l8.25,3.49v6.34Z"/><path class="cls-2" d="M46.81,133.1l-1.93-6.44-11.55-2.83L31.47,129l-5.81-1.8L36.88,97l5.13.79,12,36.6Zm-7.64-25.62-4,11.11,8.08,2Z"/><path class="cls-2" d="M57.27,135.39v-5.9L73,108.07,58,106.8v-6.59l24,2V108L65.85,130.37l16.07,1.83v6.59Z"/><path class="cls-2" d="M110.95,140.1l-2.28-6.87-13.33-.4-2.26,6.49-7.49-.44,13.49-36.35,5.74.16,13.69,37.46Zm-8.81-26.61-4.73,13.33,9.32.28Z"/><path class="cls-2" d="M143.28,138.79l-7.34-14.32-5.26.26v14.83l-7.32.38V102.62l14.7-.46c7.64-.4,12.17,4.6,12.17,10.86a10.37,10.37,0,0,1-6.85,9.89l7.8,14.83Zm-5.69-30.09h-6.9v9.89l6.9-.35c3.22-.16,5.31-2,5.31-4.94a4.62,4.62,0,0,0-5.31-4.6Z"/><path class="cls-2" d="M167.2,136.4c-5.44.33-9.58-.61-13.2-4l4.49-4.94a11.14,11.14,0,0,0,8.69,2.55c4.12-.25,6.33-2,6.3-4.94a3.92,3.92,0,0,0-1.14-3,5.07,5.07,0,0,0-3.18-1.09l-4.27-.28a11.55,11.55,0,0,1-7-2.6,9.27,9.27,0,0,1-2.64-7c0-6.49,4.64-11.34,12.39-11.78,4.95-.3,8.53.73,11.55,3.56l-4.39,4.71a9.49,9.49,0,0,0-7.29-2c-3.73.21-5.53,2.42-5.49,4.94a3.29,3.29,0,0,0,1.09,2.55,5.79,5.79,0,0,0,3.3,1.24l4.24.36a11.21,11.21,0,0,1,6.88,2.41,9.88,9.88,0,0,1,2.84,7.56C180.46,131.62,174.71,136,167.2,136.4Z"/><path class="cls-2" d="M43.91,74.8,32,70,33,67.73l4.42,1.85-.49-2.67,2,.69.49,2.67,3.46,1.38,2.09-5.37L47,67.1Z"/><path class="cls-2" d="M51.58,59.06l-2.34-.49-2.29,3.92,1.57,1.81-1.4,2.24L38.42,56.06l1-1.65L52.8,56.85Zm-9.29-2,3.17,3.76L47.11,58Z"/><path class="cls-2" d="M53.39,56.28,51.74,55l-3.3-9.59-3.3,4.09-1.62-1.37,5.1-6.39L50.18,43l3.3,9.62,3.41-4.28,1.75,1.38Z"/><path class="cls-2" d="M65.39,43.13,63.29,42,60,45.12l1,2.18-1.9,1.78L53.71,36.62l1.42-1.33,12.17,6.1ZM57,38.61l2,4.5,2.31-2.18Z"/><path class="cls-2" d="M74.15,36.62,69.2,33.83l-1.5,1,2.89,4.2-2,1.4L61.31,29.91l4.14-2.83a4.6,4.6,0,0,1,1.65-.73,4,4,0,0,1,1.57,0,3.53,3.53,0,0,1,1.37.56A4.11,4.11,0,0,1,71.13,28a3.71,3.71,0,0,1,.54,1.12,3.44,3.44,0,0,1,.13,1.07,3.29,3.29,0,0,1-.2,1,3.56,3.56,0,0,1-.46.87L76.5,35ZM69,29.37a1.65,1.65,0,0,0-1.11-.73,1.88,1.88,0,0,0-1.37.36l-2,1.33,1.91,2.78,2-1.33a1.86,1.86,0,0,0,.84-1.14A1.65,1.65,0,0,0,69,29.37Z"/><path class="cls-2" d="M84.06,27.09a3.47,3.47,0,0,1,0,3.18,4.58,4.58,0,0,1-1,1.33,6.47,6.47,0,0,1-1.65,1.05,8.44,8.44,0,0,1-2.49.81,5.09,5.09,0,0,1-2.44-.28L77.2,31a3.3,3.3,0,0,0,1.65.15,5.94,5.94,0,0,0,1.65-.53,2.94,2.94,0,0,0,1.34-1.1,1.35,1.35,0,0,0,0-1.3,1.42,1.42,0,0,0-.82-.79,1.49,1.49,0,0,0-.51,0,3.3,3.3,0,0,0-.69.15l-1.48.48a4.33,4.33,0,0,1-2.69.13,3.4,3.4,0,0,1-1.93-1.86,3.94,3.94,0,0,1-.41-1.55,3.42,3.42,0,0,1,.26-1.48A4.1,4.1,0,0,1,74.46,22,5.67,5.67,0,0,1,76,20.91a7.11,7.11,0,0,1,2.29-.77,4.85,4.85,0,0,1,2.13.25l-.74,2.09a2.77,2.77,0,0,0-1.48-.08,6.14,6.14,0,0,0-1.25.44,2.06,2.06,0,0,0-1.14,1.07,1.55,1.55,0,0,0,0,1.24,1.33,1.33,0,0,0,.3.4,1.24,1.24,0,0,0,.45.26,1.88,1.88,0,0,0,.58,0,2.49,2.49,0,0,0,.71-.13l1.45-.46a6,6,0,0,1,1.47-.3,3.43,3.43,0,0,1,1.15.13,2.82,2.82,0,0,1,1.19.73A4.76,4.76,0,0,1,84.06,27.09Z"/><path class="cls-2" d="M94.95,27.44,90,22.86l-1,2.37,1.14,3.67-2.38.73L84.06,17.42l2.38-.73L88.08,22l2.66-6.59,2.9-.89-2.56,6.11,6.6,6Z"/><path class="cls-2" d="M99.37,26.47,97.06,13.89l2.44-.44L101.81,26Z"/><path class="cls-2" d="M118.27,20.57a4.49,4.49,0,0,1-.35,1.86,4.19,4.19,0,0,1-1,1.43,4.6,4.6,0,0,1-1.48.92,5.4,5.4,0,0,1-3.68,0,4.59,4.59,0,0,1-1.5-.89,4.22,4.22,0,0,1-1-1.4,4.49,4.49,0,0,1-.4-1.85l-.13-8.4h2.47l.13,8.24a2.4,2.4,0,0,0,.63,1.65,2.15,2.15,0,0,0,1.65.59,2.18,2.18,0,0,0,1.65-.64,2.37,2.37,0,0,0,.58-1.75l-.13-8.24h2.47Z"/><path class="cls-2" d="M128.43,26.35l-3.79-8.54-1.24,7.75-2.44-.4,2-12.62,2.21.35L129,21.42l1.24-7.73,2.44.4-2,12.64Z"/><path class="cls-2" d="M133.51,27.59l3.56-12.28,2.41.68-3.56,12.28Z"/><path class="cls-2" d="M143.12,30.92l-1.65-.71.89-13.36,2.39,1L144,26.52l5.56-6.72,2.41,1Z"/><path class="cls-2" d="M148.34,33.32l6.52-11,7.24,4.27-1.17,1.88-5.1-3L154.33,28l4.35,2.57-1.14,1.91L153.19,30l-1.65,2.67,5.1,3-1.14,1.91Z"/><path class="cls-2" d="M162.79,43.21l1.27-5.54-1.4-1.14-3.3,4-1.91-1.65,8.1-9.89,3.88,3.16a4.6,4.6,0,0,1,1.15,1.35,4,4,0,0,1,.48,1.48,3.52,3.52,0,0,1-.15,1.48,4.1,4.1,0,0,1-.74,1.35,3.71,3.71,0,0,1-.92.82,3.43,3.43,0,0,1-1,.43,3.3,3.3,0,0,1-1,.08,3.55,3.55,0,0,1-1-.2L165,45Zm5.51-7a1.65,1.65,0,0,0,.38-1.27,1.86,1.86,0,0,0-.74-1.2l-1.83-1.5L164,35l1.83,1.5a1.87,1.87,0,0,0,1.34.48,1.65,1.65,0,0,0,1.17-.68Z"/><path class="cls-2" d="M174.74,50.06a3.48,3.48,0,0,1-3.05.91,4.59,4.59,0,0,1-1.65-.61,6.45,6.45,0,0,1-1.45-1.2A8.45,8.45,0,0,1,167.12,47a5.05,5.05,0,0,1-.41-2.42l2.28.12a3.29,3.29,0,0,0,.31,1.65,5.92,5.92,0,0,0,1,1.4,2.94,2.94,0,0,0,1.44,1,1.35,1.35,0,0,0,1.25-.36,1.42,1.42,0,0,0,.53-1,1.55,1.55,0,0,0-.08-.51,3.29,3.29,0,0,0-.35-.63l-.87-1.29a4.3,4.3,0,0,1-.87-2.55,3.39,3.39,0,0,1,1.35-2.42,3.94,3.94,0,0,1,1.37-.82,3.43,3.43,0,0,1,1.5-.16,4.09,4.09,0,0,1,1.53.49,5.67,5.67,0,0,1,1.47,1.19,7.12,7.12,0,0,1,1.3,1.94,4.94,4.94,0,0,1,.36,2.11L178,44.54a2.78,2.78,0,0,0-.33-1.45,6.15,6.15,0,0,0-.78-1.09,2.06,2.06,0,0,0-1.35-.79,1.54,1.54,0,0,0-1.17.41,1.32,1.32,0,0,0-.3.4,1.22,1.22,0,0,0-.13.49,1.89,1.89,0,0,0,.1.58,2.49,2.49,0,0,0,.33.64l.86,1.27a6,6,0,0,1,.71,1.32,3.42,3.42,0,0,1,.2,1.15,2.82,2.82,0,0,1-.36,1.33A4.76,4.76,0,0,1,174.74,50.06Z"/><path class="cls-2" d="M173.34,54.56,183.68,47l1.45,2-10.34,7.51Z"/><path class="cls-2" d="M188.13,58,179,63.31l-1.24-2.14,9.16-5.27L185.25,53l1.93-1.1,4.57,7.94-1.93,1.1Z"/><path class="cls-2" d="M188.17,70.56l-4.87,2-.92-2.29,4.87-2,5.56-6.38,1,2.52-3.89,4.14,5.66.25,1,2.52Z"/><path class="cls-2" d="M58.79,165.15l-1.2-1.09,2.72-5.77-5.41,3.3-1.19-1.14,4.72-9.15,1.5,1.37-3.08,5.67,5.56-3.43,1.07,1-2.87,5.87L66,158.15l1.5,1.37Z"/><path class="cls-2" d="M66.9,171.1l.53-1.78-2.84-2-1.5,1.1-1.65-1.15,8.64-6.1,1.25.87-2.79,10.22ZM69,164l-3.1,2.26,2,1.42Z"/><path class="cls-2" d="M75,175.72l.16-4.42-1.24-.68L72,174.12l-1.65-.91,4.72-8.75,3.38,1.85a3.58,3.58,0,0,1,1.07.86,3.08,3.08,0,0,1,.59,1.05,2.73,2.73,0,0,1,.1,1.15,3.29,3.29,0,0,1-.36,1.14,2.88,2.88,0,0,1-.58.76,2.67,2.67,0,0,1-.71.48,2.64,2.64,0,0,1-.78.21,2.74,2.74,0,0,1-.78,0l-.1,4.83Zm3.18-6.11a1.23,1.23,0,0,0,.12-1,1.45,1.45,0,0,0-.74-.81l-1.65-.87-1.25,2.31,1.65.87a1.45,1.45,0,0,0,1.09.16A1.24,1.24,0,0,0,78.14,169.6Z"/><path class="cls-2" d="M86.07,177.4A2.7,2.7,0,0,1,84.24,179a3.58,3.58,0,0,1-1.3.1,5,5,0,0,1-1.42-.36,6.6,6.6,0,0,1-1.77-1,3.94,3.94,0,0,1-1.11-1.55l1.65-.69a2.54,2.54,0,0,0,.76,1,4.65,4.65,0,0,0,1.15.66,2.28,2.28,0,0,0,1.34.2,1,1,0,0,0,.76-.68,1.1,1.1,0,0,0,0-.89,1.15,1.15,0,0,0-.23-.33,2.52,2.52,0,0,0-.45-.33l-1.06-.61a3.3,3.3,0,0,1-1.48-1.48,2.63,2.63,0,0,1,0-2.08,3.06,3.06,0,0,1,.68-1,2.67,2.67,0,0,1,1-.63,3.2,3.2,0,0,1,1.24-.16,4.41,4.41,0,0,1,1.44.33,5.56,5.56,0,0,1,1.65.92,3.77,3.77,0,0,1,1,1.35l-1.65.66a2.16,2.16,0,0,0-.73-.91,4.83,4.83,0,0,0-.91-.49,1.65,1.65,0,0,0-1.22-.1,1.2,1.2,0,0,0-.68.68,1,1,0,0,0,0,.38,1,1,0,0,0,0,.4,1.48,1.48,0,0,0,.26.36,1.9,1.9,0,0,0,.45.33l1,.59a4.68,4.68,0,0,1,.94.69,2.67,2.67,0,0,1,.53.74,2.19,2.19,0,0,1,.2,1.05A3.7,3.7,0,0,1,86.07,177.4Z"/><path class="cls-2" d="M92.8,182.45l-.08-1.85-3.4-1-1.06,1.53-1.95-.56,6.2-8.59,1.47.41L94.77,183ZM92.49,175l-2.19,3.13,2.38.68Z"/><path class="cls-2" d="M104.73,184.63l-1.65-.23-.92-6.23-2.71,5.7-1.65-.23-1.17-10.22,2,.3.59,6.43,2.72-5.93,1.44.21.87,6.46,2.46-6,2,.3Z"/><path class="cls-2" d="M116.52,180.71a2.49,2.49,0,1,1-.76-1.75A2.4,2.4,0,0,1,116.52,180.71Z"/><path class="cls-2" d="M128.25,177a3.29,3.29,0,0,1,0,1.22,2.88,2.88,0,0,1-.51,1.07,3.05,3.05,0,0,1-.94.79,3.7,3.7,0,0,1-1.34.41l-1.9.25.48,3.71-1.91.25-1.29-9.89,3.83-.49a3.67,3.67,0,0,1,1.4,0,3.05,3.05,0,0,1,1.11.53,2.9,2.9,0,0,1,.78.91A3.29,3.29,0,0,1,128.25,177Zm-1.91.25a1.32,1.32,0,0,0-.51-.94,1.45,1.45,0,0,0-1.11-.23l-1.81.23.35,2.7,1.81-.23a1.47,1.47,0,0,0,1-.51,1.28,1.28,0,0,0,.21-1Z"/><path class="cls-2" d="M137.31,176.8c.1.41.2.81.28,1.17a6.7,6.7,0,0,1,.15,1,3.7,3.7,0,0,1,0,1,2.88,2.88,0,0,1-.36.92,3.58,3.58,0,0,1-2.34,1.65,3.86,3.86,0,0,1-1.53.1,3.76,3.76,0,0,1-1.35-.49,2.89,2.89,0,0,1-.76-.64,3.49,3.49,0,0,1-.49-.82,7.21,7.21,0,0,1-.35-1l-.31-1.17q-.16-.63-.28-1.17a7.08,7.08,0,0,1-.16-1,3.51,3.51,0,0,1,0-1,2.9,2.9,0,0,1,.36-.92,3.74,3.74,0,0,1,1-1.07,3.86,3.86,0,0,1,1.4-.64,3.58,3.58,0,0,1,2.87.41,2.89,2.89,0,0,1,.76.64,3.66,3.66,0,0,1,.51.82,6.59,6.59,0,0,1,.36,1Zm-1.86.46q-.16-.69-.31-1.14a6,6,0,0,0-.26-.73,1.76,1.76,0,0,0-.26-.44,1.76,1.76,0,0,0-1.67-.53,1.73,1.73,0,0,0-.68.31,1.65,1.65,0,0,0-.43.49,1.47,1.47,0,0,0-.15.4,2,2,0,0,0,0,.51,5.91,5.91,0,0,0,.12.77,5.82,5.82,0,0,0,.26,1.15c.12.46.21.84.31,1.14a6,6,0,0,0,.26.73,1.94,1.94,0,0,0,.26.44,1.4,1.4,0,0,0,.31.28,1.55,1.55,0,0,0,.61.25,1.75,1.75,0,0,0,.74,0,1.58,1.58,0,0,0,1.09-.81,1.53,1.53,0,0,0,.15-.4,1.79,1.79,0,0,0,0-.51,5.9,5.9,0,0,0-.12-.77Q135.61,178,135.44,177.26Z"/><path class="cls-2" d="M141.32,180.71l-3.48-9.31,1.81-.68,2.87,7.61,4.24-1.65.61,1.65Z"/><path class="cls-2" d="M154.76,174.89l-1.32-1.3-3.17,1.65.25,1.85-1.81.91-1.24-10.51,1.37-.68,7.72,7.25Zm-5.23-5.22.49,3.79,2.21-1.1Z"/><path class="cls-2" d="M163.39,169.59l-6.6-2.9,3.32,5.06-1.65,1.07-5.51-8.24,1.45-1,6.6,2.88-3.3-5.08,1.65-1.07,5.51,8.24Z"/><path class="cls-2" d="M170.43,158.92a6.59,6.59,0,0,1,.63.86,4,4,0,0,1,.43.94,3,3,0,0,1,.1,1.09,3,3,0,0,1-.41,1.3,4.53,4.53,0,0,1-1,1.12l-2.69,2.34-6.6-7.53,2.72-2.34a4.5,4.5,0,0,1,1.25-.77,3,3,0,0,1,1.35-.21,3.05,3.05,0,0,1,1.06.26,3.84,3.84,0,0,1,.86.54,6.3,6.3,0,0,1,.74.74Zm-2.19.41-.71-.77A6.89,6.89,0,0,0,167,158a2.16,2.16,0,0,0-.43-.31,1.42,1.42,0,0,0-.41-.13,1.65,1.65,0,0,0-.76,0,2.11,2.11,0,0,0-.76.44l-1.12,1,4.22,4.94,1.12-1a2.14,2.14,0,0,0,.54-.68,1.65,1.65,0,0,0,.16-.74,1.86,1.86,0,0,0-.35-.94,14.83,14.83,0,0,0-1-1.33Z"/><polygon class="cls-2" points="15.32 116.59 15.32 104.94 19.59 101.84 19.59 98.76 15.32 101.84 15.32 91.15 8.74 88.16 8.74 119.92 23.5 126.43 23.5 120.07 15.32 116.59"/></g></svg>